# xmcd
#
# Track frame offsets:
#	150
#	15808
#	30466
#	41755
#	52559
#	64523
#	77318
#	86753
#	97065
#	106956
#	117689
#	129796
#	141345
#	151943
#	162773
#	174544
#	185406
#	197568
#	208315
#	217931
#	229882
#	240184
#	252498
#	263160
#	275465
#	285360
#	295635
#	308068
#	328452
#	337269
#
# Disc length: 4647 seconds
#
# Revision: 1
# Processed by: cddbd v1.5.2PL0 Copyright (c) Steve Scherf et al.
# Submitted via: audiograbber 1.83.01
#
DISCID=a112251e
DTITLE=King Curtis - The best of King Curtis (1952-1961) [CD2]
DYEAR=1900
DGENRE=
TTITLE0=Melvin Daniels - I'll be there
TTITLE1=Bob Kent - Korea,Korea
TTITLE2=Melvin Daniels - Boogie in the moonlight
TTITLE3=Doc Pomus - Work,Little Carrie,Work
TTITLE4=The Sparks Of Rhythm - Woman,woman,woman
TTITLE5=Solomon Burke - Why do me that way
TTITLE6=Mr. Bear&his Bearcats - Mr. Bear comes to town
TTITLE7=Varetta Dillard - If (You want to be my baby)
TTITLE8=Roy Gaines - Dee Dat Dee Dum Dum
TTITLE9=Big Connie - Mumbles Blues
TTITLE10=The Tibbs Brothers  - I'm going crazy
TTITLE11=The Nitecaps - Bamboo Rock'n'Roll
TTITLE12=The Cues - Yes Sir!
TTITLE13=Washboard Bill - In the morning
TTITLE14=The Avons - Our love will never end
TTITLE15=The Willows - Don't push,don't pull,don't shove
TTITLE16=Sonny Thompson - Gum Shoe
TTITLE17=Mickey&Sylvia - I'm going home
TTITLE18=The Nitecaps - Oh! You sweet girl
TTITLE19=Sam Price - Rib Joint
TTITLE20=Rudy Greene - Juicy Fruit
TTITLE21=Sammy Lowe - Wail man wail
TTITLE22=Rudy Greene - You're the one for me
TTITLE23=Washboard Bill - Pot Likker
TTITLE24=The Pearls - Ice cream baby
TTITLE25=The Five Keys  - Handy Andy
TTITLE26=The Twin-Tones - Before you go
TTITLE27=Big Maybelle - Blues,Early,Early Pts. 1&2
TTITLE28=Walter Spriggs - Rack 'em back
TTITLE29=The Diamonds - The stroll
EXTD=
EXTT0=
EXTT1=
EXTT2=
EXTT3=
EXTT4=
EXTT5=
EXTT6=
EXTT7=
EXTT8=
EXTT9=
EXTT10=
EXTT11=
EXTT12=
EXTT13=
EXTT14=
EXTT15=
EXTT16=
EXTT17=
EXTT18=
EXTT19=
EXTT20=
EXTT21=
EXTT22=
EXTT23=
EXTT24=
EXTT25=
EXTT26=
EXTT27=
EXTT28=
EXTT29=
PLAYORDER=
